<svg width="22" height="16" viewBox="0 0 22 16" fill="none" xmlns="http://www.w3.org/2000/svg">
<path d="M20.2991 6.18147C20.6379 6.11254 20.9425 5.92866 21.1613 5.66096C21.3802 5.39326 21.4998 5.05818 21.5 4.71241V2.38647C21.5 1.98865 21.342 1.60712 21.0607 1.32581C20.7794 1.04451 20.3978 0.886475 20 0.886475H2C1.60218 0.886475 1.22065 1.04451 0.939343 1.32581C0.658038 1.60712 0.500003 1.98865 0.500003 2.38647V4.71241C0.500192 5.05818 0.61983 5.39326 0.838671 5.66096C1.05751 5.92866 1.36212 6.11254 1.70094 6.18147C2.20757 6.28654 2.66251 6.563 2.98912 6.9643C3.31573 7.36559 3.49406 7.86719 3.49406 8.3846C3.49406 8.90201 3.31573 9.40361 2.98912 9.8049C2.66251 10.2062 2.20757 10.4827 1.70094 10.5877C1.36148 10.6568 1.0564 10.8412 0.837483 11.1097C0.61857 11.3782 0.499327 11.7141 0.500003 12.0605V14.3865C0.500003 14.7843 0.658038 15.1658 0.939343 15.4471C1.22065 15.7284 1.60218 15.8865 2 15.8865H20C20.3978 15.8865 20.7794 15.7284 21.0607 15.4471C21.342 15.1658 21.5 14.7843 21.5 14.3865V12.0605C21.4998 11.7148 21.3802 11.3797 21.1613 11.112C20.9425 10.8443 20.6379 10.6604 20.2991 10.5915C19.7924 10.4864 19.3375 10.2099 19.0109 9.80865C18.6843 9.40736 18.5059 8.90576 18.5059 8.38835C18.5059 7.87094 18.6843 7.36934 19.0109 6.96805C19.3375 6.56675 19.7924 6.29029 20.2991 6.18522V6.18147ZM2 12.0615C2.84722 11.8889 3.60876 11.4288 4.15573 10.7592C4.70269 10.0896 5.00146 9.25156 5.00146 8.38694C5.00146 7.52233 4.70269 6.68428 4.15573 6.01466C3.60876 5.34504 2.84722 4.885 2 4.71241V2.38647H7.25V14.3865H2V12.0615Z" fill="#F6A4EB"/>
</svg>
