<svg width="28" height="21" viewBox="0 0 28 21" fill="none" xmlns="http://www.w3.org/2000/svg">
<path d="M26 0.386475H2C1.46957 0.386475 0.960859 0.597188 0.585786 0.972261C0.210714 1.34733 0 1.85604 0 2.38647V18.3865C0 18.9169 0.210714 19.4256 0.585786 19.8007C0.960859 20.1758 1.46957 20.3865 2 20.3865H26C26.5304 20.3865 27.0391 20.1758 27.4142 19.8007C27.7893 19.4256 28 18.9169 28 18.3865V2.38647C28 1.85604 27.7893 1.34733 27.4142 0.972261C27.0391 0.597188 26.5304 0.386475 26 0.386475ZM15 16.3865H13C12.7348 16.3865 12.4804 16.2811 12.2929 16.0936C12.1054 15.906 12 15.6517 12 15.3865C12 15.1213 12.1054 14.8669 12.2929 14.6794C12.4804 14.4918 12.7348 14.3865 13 14.3865H15C15.2652 14.3865 15.5196 14.4918 15.7071 14.6794C15.8946 14.8669 16 15.1213 16 15.3865C16 15.6517 15.8946 15.906 15.7071 16.0936C15.5196 16.2811 15.2652 16.3865 15 16.3865ZM23 16.3865H19C18.7348 16.3865 18.4804 16.2811 18.2929 16.0936C18.1054 15.906 18 15.6517 18 15.3865C18 15.1213 18.1054 14.8669 18.2929 14.6794C18.4804 14.4918 18.7348 14.3865 19 14.3865H23C23.2652 14.3865 23.5196 14.4918 23.7071 14.6794C23.8946 14.8669 24 15.1213 24 15.3865C24 15.6517 23.8946 15.906 23.7071 16.0936C23.5196 16.2811 23.2652 16.3865 23 16.3865ZM2 5.38647V2.38647H26V5.38647H2Z" fill="#323232"/>
</svg>
