<svg width="20" height="21" viewBox="0 0 20 21" fill="none" xmlns="http://www.w3.org/2000/svg">
<path d="M10 0.916992C8.07163 0.916992 6.18657 1.48882 4.58319 2.56016C2.97981 3.63151 1.73013 5.15425 0.992175 6.93583C0.254221 8.71741 0.0611382 10.6778 0.437344 12.5691C0.81355 14.4604 1.74215 16.1977 3.10571 17.5613C4.46927 18.9248 6.20656 19.8534 8.09787 20.2296C9.98919 20.6059 11.9496 20.4128 13.7312 19.6748C15.5127 18.9369 17.0355 17.6872 18.1068 16.0838C19.1782 14.4804 19.75 12.5954 19.75 10.667C19.7473 8.08197 18.7192 5.6036 16.8913 3.77572C15.0634 1.94783 12.585 0.919722 10 0.916992ZM14.2806 9.69762L10.5306 13.4476C10.461 13.5174 10.3783 13.5727 10.2872 13.6104C10.1962 13.6482 10.0986 13.6676 10 13.6676C9.90144 13.6676 9.80384 13.6482 9.7128 13.6104C9.62175 13.5727 9.53903 13.5174 9.46938 13.4476L5.71938 9.69762C5.57864 9.55689 5.49958 9.36602 5.49958 9.16699C5.49958 8.96797 5.57864 8.7771 5.71938 8.63637C5.86011 8.49564 6.05098 8.41658 6.25 8.41658C6.44902 8.41658 6.6399 8.49564 6.78063 8.63637L10 11.8567L13.2194 8.63637C13.2891 8.56668 13.3718 8.51141 13.4628 8.4737C13.5539 8.43599 13.6515 8.41658 13.75 8.41658C13.8485 8.41658 13.9461 8.43599 14.0372 8.4737C14.1282 8.51141 14.2109 8.56668 14.2806 8.63637C14.3503 8.70605 14.4056 8.78877 14.4433 8.87982C14.481 8.97086 14.5004 9.06845 14.5004 9.16699C14.5004 9.26554 14.481 9.36312 14.4433 9.45416C14.4056 9.54521 14.3503 9.62793 14.2806 9.69762Z" fill="#E1E1E1"/>
</svg>
