<svg width="22" height="22" viewBox="0 0 22 22" fill="none" xmlns="http://www.w3.org/2000/svg">
<path d="M20.1744 9.02585C19.8209 8.65647 19.4553 8.27585 19.3175 7.94116C19.19 7.6346 19.1825 7.12647 19.175 6.63429C19.1609 5.71929 19.1459 4.68241 18.425 3.96147C17.7041 3.24054 16.6672 3.22554 15.7522 3.21147C15.26 3.20397 14.7519 3.19647 14.4453 3.06897C14.1116 2.93116 13.73 2.56554 13.3606 2.2121C12.7137 1.59054 11.9788 0.886475 11 0.886475C10.0212 0.886475 9.28719 1.59054 8.63937 2.2121C8.27 2.56554 7.88938 2.93116 7.55469 3.06897C7.25 3.19647 6.74 3.20397 6.24781 3.21147C5.33281 3.22554 4.29594 3.24054 3.575 3.96147C2.85406 4.68241 2.84375 5.71929 2.825 6.63429C2.8175 7.12647 2.81 7.6346 2.6825 7.94116C2.54469 8.27491 2.17906 8.65647 1.82562 9.02585C1.20406 9.67272 0.5 10.4077 0.5 11.3865C0.5 12.3652 1.20406 13.0993 1.82562 13.7471C2.17906 14.1165 2.54469 14.4971 2.6825 14.8318C2.81 15.1383 2.8175 15.6465 2.825 16.1387C2.83906 17.0537 2.85406 18.0905 3.575 18.8115C4.29594 19.5324 5.33281 19.5474 6.24781 19.5615C6.74 19.569 7.24813 19.5765 7.55469 19.704C7.88844 19.8418 8.27 20.2074 8.63937 20.5609C9.28625 21.1824 10.0212 21.8865 11 21.8865C11.9788 21.8865 12.7128 21.1824 13.3606 20.5609C13.73 20.2074 14.1106 19.8418 14.4453 19.704C14.7519 19.5765 15.26 19.569 15.7522 19.5615C16.6672 19.5474 17.7041 19.5324 18.425 18.8115C19.1459 18.0905 19.1609 17.0537 19.175 16.1387C19.1825 15.6465 19.19 15.1383 19.3175 14.8318C19.4553 14.498 19.8209 14.1165 20.1744 13.7471C20.7959 13.1002 21.5 12.3652 21.5 11.3865C21.5 10.4077 20.7959 9.67366 20.1744 9.02585ZM11 17.3865C10.7775 17.3865 10.56 17.3205 10.375 17.1969C10.19 17.0733 10.0458 16.8976 9.96064 16.692C9.87549 16.4864 9.85321 16.2602 9.89662 16.042C9.94002 15.8238 10.0472 15.6233 10.2045 15.466C10.3618 15.3086 10.5623 15.2015 10.7805 15.1581C10.9988 15.1147 11.225 15.137 11.4305 15.2221C11.6361 15.3073 11.8118 15.4515 11.9354 15.6365C12.059 15.8215 12.125 16.039 12.125 16.2615C12.125 16.5598 12.0065 16.846 11.7955 17.057C11.5845 17.2679 11.2984 17.3865 11 17.3865ZM11.75 12.819V12.8865C11.75 13.0854 11.671 13.2762 11.5303 13.4168C11.3897 13.5575 11.1989 13.6365 11 13.6365C10.8011 13.6365 10.6103 13.5575 10.4697 13.4168C10.329 13.2762 10.25 13.0854 10.25 12.8865V12.1365C10.25 11.9376 10.329 11.7468 10.4697 11.6061C10.6103 11.4655 10.8011 11.3865 11 11.3865C12.2403 11.3865 13.25 10.5427 13.25 9.51147C13.25 8.48022 12.2403 7.63647 11 7.63647C9.75969 7.63647 8.75 8.48022 8.75 9.51147V9.88647C8.75 10.0854 8.67098 10.2762 8.53033 10.4168C8.38968 10.5575 8.19891 10.6365 8 10.6365C7.80109 10.6365 7.61032 10.5575 7.46967 10.4168C7.32902 10.2762 7.25 10.0854 7.25 9.88647V9.51147C7.25 7.65054 8.93188 6.13647 11 6.13647C13.0681 6.13647 14.75 7.65054 14.75 9.51147C14.75 11.1408 13.46 12.5049 11.75 12.819Z" fill="#23B47E"/>
</svg>
