<svg width="20" height="22" viewBox="0 0 20 22" fill="none" xmlns="http://www.w3.org/2000/svg">
<path d="M19.75 3.66699V2.16699C19.75 1.76917 19.592 1.38764 19.3107 1.10633C19.0294 0.825027 18.6478 0.666992 18.25 0.666992H1.75C1.35218 0.666992 0.970644 0.825027 0.68934 1.10633C0.408035 1.38764 0.25 1.76917 0.25 2.16699V3.66699C0.25 4.06482 0.408035 4.44635 0.68934 4.72765C0.970644 5.00896 1.35218 5.16699 1.75 5.16699V14.167H1C0.801088 14.167 0.610322 14.246 0.46967 14.3867C0.329018 14.5273 0.25 14.7181 0.25 14.917C0.25 15.1159 0.329018 15.3067 0.46967 15.4473C0.610322 15.588 0.801088 15.667 1 15.667H9.25V17.2964C8.74959 17.4733 8.32783 17.8214 8.05928 18.2792C7.79072 18.737 7.69265 19.275 7.7824 19.7982C7.87216 20.3213 8.14395 20.7958 8.54976 21.1379C8.95556 21.4801 9.46923 21.6677 10 21.6677C10.5308 21.6677 11.0444 21.4801 11.4502 21.1379C11.856 20.7958 12.1278 20.3213 12.2176 19.7982C12.3073 19.275 12.2093 18.737 11.9407 18.2792C11.6722 17.8214 11.2504 17.4733 10.75 17.2964V15.667H19C19.1989 15.667 19.3897 15.588 19.5303 15.4473C19.671 15.3067 19.75 15.1159 19.75 14.917C19.75 14.7181 19.671 14.5273 19.5303 14.3867C19.3897 14.246 19.1989 14.167 19 14.167H18.25V5.16699C18.6478 5.16699 19.0294 5.00896 19.3107 4.72765C19.592 4.44635 19.75 4.06482 19.75 3.66699ZM10 20.167C9.85166 20.167 9.70666 20.123 9.58332 20.0406C9.45998 19.9582 9.36386 19.841 9.30709 19.704C9.25032 19.567 9.23547 19.4162 9.26441 19.2707C9.29335 19.1252 9.36478 18.9915 9.46967 18.8867C9.57456 18.7818 9.7082 18.7103 9.85368 18.6814C9.99917 18.6525 10.15 18.6673 10.287 18.7241C10.4241 18.7808 10.5412 18.877 10.6236 19.0003C10.706 19.1236 10.75 19.2687 10.75 19.417C10.75 19.6159 10.671 19.8067 10.5303 19.9473C10.3897 20.088 10.1989 20.167 10 20.167ZM1.75 2.16699H18.25V3.66699H1.75V2.16699Z" fill="#B8A3FE"/>
</svg>
