<svg width="27" height="23" viewBox="0 0 27 23" fill="none" xmlns="http://www.w3.org/2000/svg">
<path d="M24.5 0.386719H2.5C1.96957 0.386719 1.46086 0.597432 1.08579 0.972505C0.710714 1.34758 0.5 1.85629 0.5 2.38672V21.3867C0.500091 21.5572 0.543743 21.7247 0.626812 21.8736C0.709881 22.0224 0.82961 22.1475 0.974632 22.2371C1.11965 22.3266 1.28516 22.3776 1.45543 22.3852C1.62569 22.3928 1.79508 22.3567 1.9475 22.2805L5.5 20.5042L9.0525 22.2805C9.19143 22.35 9.34465 22.3862 9.5 22.3862C9.65535 22.3862 9.80857 22.35 9.9475 22.2805L13.5 20.5042L17.0525 22.2805C17.1914 22.35 17.3446 22.3862 17.5 22.3862C17.6554 22.3862 17.8086 22.35 17.9475 22.2805L21.5 20.5042L25.0525 22.2805C25.2049 22.3567 25.3743 22.3928 25.5446 22.3852C25.7148 22.3776 25.8803 22.3266 26.0254 22.2371C26.1704 22.1475 26.2901 22.0224 26.3732 21.8736C26.4563 21.7247 26.4999 21.5572 26.5 21.3867V2.38672C26.5 1.85629 26.2893 1.34758 25.9142 0.972505C25.5391 0.597432 25.0304 0.386719 24.5 0.386719ZM19.5 13.3867H7.5C7.23478 13.3867 6.98043 13.2814 6.79289 13.0938C6.60536 12.9063 6.5 12.6519 6.5 12.3867C6.5 12.1215 6.60536 11.8671 6.79289 11.6796C6.98043 11.4921 7.23478 11.3867 7.5 11.3867H19.5C19.7652 11.3867 20.0196 11.4921 20.2071 11.6796C20.3946 11.8671 20.5 12.1215 20.5 12.3867C20.5 12.6519 20.3946 12.9063 20.2071 13.0938C20.0196 13.2814 19.7652 13.3867 19.5 13.3867ZM19.5 9.38672H7.5C7.23478 9.38672 6.98043 9.28136 6.79289 9.09383C6.60536 8.90629 6.5 8.65194 6.5 8.38672C6.5 8.1215 6.60536 7.86715 6.79289 7.67961C6.98043 7.49208 7.23478 7.38672 7.5 7.38672H19.5C19.7652 7.38672 20.0196 7.49208 20.2071 7.67961C20.3946 7.86715 20.5 8.1215 20.5 8.38672C20.5 8.65194 20.3946 8.90629 20.2071 9.09383C20.0196 9.28136 19.7652 9.38672 19.5 9.38672Z" fill="#323232"/>
</svg>
