<svg width="25" height="25" viewBox="0 0 25 25" fill="none" xmlns="http://www.w3.org/2000/svg">
<path d="M12.5001 3.15051C10.5717 3.15051 8.68664 3.72234 7.08326 4.79368C5.47988 5.86503 4.23019 7.38777 3.49224 9.16935C2.75429 10.9509 2.5612 12.9113 2.93741 14.8026C3.31361 16.694 4.24221 18.4312 5.60577 19.7948C6.96934 21.1584 8.70662 22.087 10.5979 22.4632C12.4893 22.8394 14.4496 22.6463 16.2312 21.9083C18.0128 21.1704 19.5356 19.9207 20.6069 18.3173C21.6782 16.7139 22.2501 14.8289 22.2501 12.9005C22.2473 10.3155 21.2192 7.83712 19.3913 6.00924C17.5635 4.18135 15.0851 3.15324 12.5001 3.15051ZM16.7807 13.4311L13.7807 16.4311C13.64 16.5719 13.4491 16.6509 13.2501 16.6509C13.051 16.6509 12.8602 16.5719 12.7194 16.4311C12.5787 16.2904 12.4996 16.0995 12.4996 15.9005C12.4996 15.7015 12.5787 15.5106 12.7194 15.3699L14.4398 13.6505H8.75007C8.55115 13.6505 8.36039 13.5715 8.21974 13.4308C8.07908 13.2902 8.00007 13.0994 8.00007 12.9005C8.00007 12.7016 8.07908 12.5108 8.21974 12.3702C8.36039 12.2295 8.55115 12.1505 8.75007 12.1505H14.4398L12.7194 10.4311C12.5787 10.2904 12.4996 10.0995 12.4996 9.90051C12.4996 9.70149 12.5787 9.51062 12.7194 9.36989C12.8602 9.22916 13.051 9.1501 13.2501 9.1501C13.4491 9.1501 13.64 9.22916 13.7807 9.36989L16.7807 12.3699C16.8504 12.4395 16.9057 12.5223 16.9435 12.6133C16.9812 12.7044 17.0007 12.802 17.0007 12.9005C17.0007 12.9991 16.9812 13.0967 16.9435 13.1877C16.9057 13.2788 16.8504 13.3615 16.7807 13.4311Z" fill="white"/>
</svg>
