<svg width="17" height="17" viewBox="0 0 17 17" fill="none" xmlns="http://www.w3.org/2000/svg">
<path d="M8.49999 0.165672C6.89301 0.165672 5.32213 0.642195 3.98598 1.53498C2.64983 2.42777 1.60843 3.69672 0.993467 5.18137C0.378505 6.66602 0.217603 8.29969 0.531108 9.87578C0.844613 11.4519 1.61844 12.8996 2.75475 14.0359C3.89105 15.1722 5.33878 15.946 6.91488 16.2596C8.49098 16.5731 10.1246 16.4122 11.6093 15.7972C13.0939 15.1822 14.3629 14.1408 15.2557 12.8047C16.1485 11.4685 16.625 9.89765 16.625 8.29067C16.6227 6.13649 15.766 4.07118 14.2427 2.54794C12.7195 1.0247 10.6542 0.167947 8.49999 0.165672ZM10.8172 8.73286L7.69218 11.8579C7.63411 11.9159 7.56517 11.962 7.4893 11.9934C7.41343 12.0248 7.33211 12.041 7.24999 12.041C7.16787 12.041 7.08655 12.0248 7.01068 11.9934C6.93481 11.962 6.86587 11.9159 6.8078 11.8579C6.74973 11.7998 6.70367 11.7309 6.67224 11.655C6.64082 11.5791 6.62464 11.4978 6.62464 11.4157C6.62464 11.3336 6.64082 11.2522 6.67224 11.1764C6.70367 11.1005 6.74973 11.0316 6.8078 10.9735L9.49139 8.29067L6.8078 5.60786C6.69053 5.49058 6.62464 5.33152 6.62464 5.16567C6.62464 4.99982 6.69053 4.84076 6.8078 4.72348C6.92508 4.60621 7.08414 4.54032 7.24999 4.54032C7.41584 4.54032 7.5749 4.60621 7.69218 4.72348L10.8172 7.84848C10.8753 7.90653 10.9214 7.97546 10.9528 8.05133C10.9843 8.12721 11.0005 8.20854 11.0005 8.29067C11.0005 8.37281 10.9843 8.45414 10.9528 8.53001C10.9214 8.60588 10.8753 8.67481 10.8172 8.73286Z" fill="#191919"/>
</svg>
