<svg width="32" height="33" viewBox="0 0 32 33" fill="none" xmlns="http://www.w3.org/2000/svg">
<path d="M16 0.333984C12.8355 0.333984 9.74207 1.27237 7.11089 3.03047C4.4797 4.78857 2.42894 7.28743 1.21794 10.211C0.00694094 13.1347 -0.309912 16.3517 0.307451 19.4554C0.924815 22.5591 2.44867 25.41 4.68631 27.6477C6.92395 29.8853 9.77487 31.4092 12.8786 32.0265C15.9823 32.6439 19.1993 32.327 22.1229 31.116C25.0466 29.905 27.5454 27.8543 29.3035 25.2231C31.0616 22.5919 32 19.4985 32 16.334C31.9955 12.0919 30.3084 8.02483 27.3088 5.02522C24.3092 2.02561 20.2421 0.338464 16 0.333984ZM19.3323 21.6171C19.4467 21.7314 19.5374 21.8672 19.5993 22.0166C19.6611 22.166 19.693 22.3261 19.693 22.4878C19.693 22.6495 19.6611 22.8097 19.5993 22.9591C19.5374 23.1085 19.4467 23.2442 19.3323 23.3586C19.218 23.4729 19.0822 23.5636 18.9328 23.6255C18.7834 23.6874 18.6233 23.7193 18.4615 23.7193C18.2998 23.7193 18.1397 23.6874 17.9903 23.6255C17.8409 23.5636 17.7051 23.4729 17.5908 23.3586L11.4369 17.2047C11.3225 17.0904 11.2317 16.9547 11.1698 16.8053C11.1078 16.6559 11.076 16.4957 11.076 16.334C11.076 16.1722 11.1078 16.0121 11.1698 15.8627C11.2317 15.7133 11.3225 15.5775 11.4369 15.4632L17.5908 9.30936C17.7051 9.19501 17.8409 9.10431 17.9903 9.04242C18.1397 8.98053 18.2998 8.94868 18.4615 8.94868C18.6233 8.94868 18.7834 8.98053 18.9328 9.04242C19.0822 9.10431 19.218 9.19501 19.3323 9.30936C19.4467 9.42372 19.5374 9.55947 19.5993 9.70888C19.6611 9.85828 19.693 10.0184 19.693 10.1801C19.693 10.3419 19.6611 10.502 19.5993 10.6514C19.5374 10.8008 19.4467 10.9366 19.3323 11.0509L14.0477 16.334L19.3323 21.6171Z" fill="#191919"/>
</svg>
